<svg id="Capa_2" data-name="Capa 2" xmlns="http://www.w3.org/2000/svg" viewBox="0 0 231.06 53.32"><defs><style>.cls-1{fill:#7a7c7b;}.cls-2,.cls-3{fill:#367844;}.cls-3{opacity:0.4;}</style></defs><title>logo_es_</title><path class="cls-1" d="M310.54,268.5h2l-1,4.79a3.83,3.83,0,0,1,1.19-.94,3.26,3.26,0,0,1,1.4-.31,2.75,2.75,0,0,1,2.17.91,3.77,3.77,0,0,1,.78,2.53,5.84,5.84,0,0,1-.38,2.14,4.53,4.53,0,0,1-1.07,1.68,3.77,3.77,0,0,1-1.2.8,3.82,3.82,0,0,1-1.45.27,2.67,2.67,0,0,1-2.63-1.8l-.35,1.6h-1.92Zm4.4,7a2.06,2.06,0,0,0-.42-1.37,1.42,1.42,0,0,0-1.16-.5,2.15,2.15,0,0,0-1.72.93,3.53,3.53,0,0,0-.74,2.24,2.17,2.17,0,0,0,.46,1.43,1.52,1.52,0,0,0,1.23.55,2,2,0,0,0,1.66-1A3.86,3.86,0,0,0,314.94,275.51Z" transform="translate(-166.36 -230.29)"/><path class="cls-1" d="M318.52,272.25h2.06l.8,6,3.1-6h2.19l-5.15,9a5.62,5.62,0,0,1-1.46,1.81,3,3,0,0,1-1.79.51,4,4,0,0,1-.74-.08,7.7,7.7,0,0,1-.9-.24l.51-1.51a2.35,2.35,0,0,0,.43.13,1.9,1.9,0,0,0,.4.05,2,2,0,0,0,.94-.22,1.44,1.44,0,0,0,.64-.57l.48-.86Z" transform="translate(-166.36 -230.29)"/><path class="cls-1" d="M338.31,272.26h2.05l-1.66,8a4,4,0,0,1-1.48,2.5,5,5,0,0,1-3,.84,7.24,7.24,0,0,1-1.46-.15,9.73,9.73,0,0,1-1.51-.44l.45-1.58a5.66,5.66,0,0,0,1.22.49,4.65,4.65,0,0,0,1.22.16,2.6,2.6,0,0,0,2-.77,5.3,5.3,0,0,0,1-2.63,4.36,4.36,0,0,1-1.32,1.18,3.29,3.29,0,0,1-1.55.38,2.72,2.72,0,0,1-2.17-.91,3.71,3.71,0,0,1-.78-2.5,5.06,5.06,0,0,1,1.15-3.41,3.63,3.63,0,0,1,2.87-1.36,3,3,0,0,1,1.6.41,2.82,2.82,0,0,1,1,1.22Zm-.8,3.34a2.07,2.07,0,0,0-.46-1.42,1.57,1.57,0,0,0-1.24-.53,2,2,0,0,0-1.67,1,4.06,4.06,0,0,0-.68,2.39,1.89,1.89,0,0,0,.43,1.3,1.42,1.42,0,0,0,1.14.5,2.16,2.16,0,0,0,1.75-.94A3.52,3.52,0,0,0,337.51,275.6Z" transform="translate(-166.36 -230.29)"/><path class="cls-1" d="M348.76,276.72H343.1a.37.37,0,0,0,0,.11s0,.1,0,.18a1.74,1.74,0,0,0,.59,1.4,2.48,2.48,0,0,0,1.66.5,5.62,5.62,0,0,0,1.18-.12,4.52,4.52,0,0,0,1.1-.39L347.5,280a7.95,7.95,0,0,1-2.61.44,3.76,3.76,0,0,1-2.75-1,3.58,3.58,0,0,1-1-2.69,5,5,0,0,1,.35-1.82,4.75,4.75,0,0,1,1-1.55,4.15,4.15,0,0,1,1.46-1,4.81,4.81,0,0,1,1.85-.33,3.11,3.11,0,0,1,2.32.85,3.2,3.2,0,0,1,.85,2.35,6,6,0,0,1,0,.7A6.77,6.77,0,0,1,348.76,276.72Zm-1.64-1.25s0,0,0-.06a3.13,3.13,0,0,0,0-.39,1.74,1.74,0,0,0-.4-1.23,1.48,1.48,0,0,0-1.14-.44,2.08,2.08,0,0,0-1.43.57,3,3,0,0,0-.86,1.55Z" transform="translate(-166.36 -230.29)"/><path class="cls-1" d="M354.85,272a3.65,3.65,0,0,1,2.7,1,3.58,3.58,0,0,1,1,2.68,4.92,4.92,0,0,1-.35,1.83,4.75,4.75,0,0,1-1,1.53,4.22,4.22,0,0,1-1.51,1,5.3,5.3,0,0,1-1.9.34,3.77,3.77,0,0,1-2.74-1,3.5,3.5,0,0,1-1-2.64,4.61,4.61,0,0,1,1.34-3.43A4.8,4.8,0,0,1,354.85,272Zm1.59,3.53a2.25,2.25,0,0,0-.48-1.52,1.63,1.63,0,0,0-1.3-.56,2.25,2.25,0,0,0-1.78.95,3.55,3.55,0,0,0-.77,2.28,2.38,2.38,0,0,0,.51,1.6,1.69,1.69,0,0,0,1.34.59,2.16,2.16,0,0,0,1.76-1A3.89,3.89,0,0,0,356.44,275.57Z" transform="translate(-166.36 -230.29)"/><path class="cls-1" d="M367.09,275.78l-.49,2.34c-.09.45-.16.85-.22,1.17a8.68,8.68,0,0,0-.12.88h-1.73l.17-1.22a3.18,3.18,0,0,1-2.69,1.38,2.73,2.73,0,0,1-1.87-.63,2.09,2.09,0,0,1-.72-1.65,2.4,2.4,0,0,1,1.18-2.12,6,6,0,0,1,3.3-.76h.51l.87.06c0-.08,0-.16,0-.21s0-.11,0-.16a1.39,1.39,0,0,0-.44-1.1,1.82,1.82,0,0,0-1.25-.39,4.8,4.8,0,0,0-1.16.15,7.42,7.42,0,0,0-1.25.43l.24-1.53a8.6,8.6,0,0,1,1.28-.33A8.08,8.08,0,0,1,364,272a3.59,3.59,0,0,1,2.36.68,2.37,2.37,0,0,1,.83,1.94c0,.15,0,.32,0,.51S367.13,275.54,367.09,275.78Zm-2.07.58H365l-.75,0a4.34,4.34,0,0,0-2.08.39,1.26,1.26,0,0,0-.69,1.18,1,1,0,0,0,.34.78,1.3,1.3,0,0,0,.88.29,2,2,0,0,0,1.56-.7A3.42,3.42,0,0,0,365,276.36Z" transform="translate(-166.36 -230.29)"/><path class="cls-1" d="M375.53,272.26h2l-1.65,8a4,4,0,0,1-1.49,2.5,5,5,0,0,1-3,.84,7.21,7.21,0,0,1-1.45-.15,9.73,9.73,0,0,1-1.51-.44l.45-1.58a5.66,5.66,0,0,0,1.22.49,4.59,4.59,0,0,0,1.22.16,2.6,2.6,0,0,0,2-.77,5.3,5.3,0,0,0,1-2.63,4.36,4.36,0,0,1-1.32,1.18,3.29,3.29,0,0,1-1.55.38,2.7,2.7,0,0,1-2.17-.91,3.71,3.71,0,0,1-.78-2.5,5.06,5.06,0,0,1,1.15-3.41,3.63,3.63,0,0,1,2.87-1.36,3,3,0,0,1,1.6.41,2.74,2.74,0,0,1,1,1.22Zm-.8,3.34a2.07,2.07,0,0,0-.46-1.42,1.57,1.57,0,0,0-1.24-.53,2,2,0,0,0-1.67,1,4.06,4.06,0,0,0-.68,2.39,1.89,1.89,0,0,0,.43,1.3,1.42,1.42,0,0,0,1.14.5,2.17,2.17,0,0,0,1.75-.94A3.52,3.52,0,0,0,374.73,275.6Z" transform="translate(-166.36 -230.29)"/><path class="cls-1" d="M384.83,272.18l-.46,1.8a4.54,4.54,0,0,0-.5-.12,2.59,2.59,0,0,0-.48,0,1.92,1.92,0,0,0-1.51.6,4.54,4.54,0,0,0-.86,2.06l-.79,3.69h-2.11l1.63-7.95h1.89l-.28,1.36a4.44,4.44,0,0,1,1.21-1.18,2.46,2.46,0,0,1,1.32-.37,2.22,2.22,0,0,1,.43,0A4.33,4.33,0,0,1,384.83,272.18Z" transform="translate(-166.36 -230.29)"/><path class="cls-1" d="M389.54,272a3.43,3.43,0,0,1,3.7,3.67,4.74,4.74,0,0,1-.36,1.83,4.56,4.56,0,0,1-1,1.53,4.22,4.22,0,0,1-1.51,1,5.3,5.3,0,0,1-1.9.34,3.77,3.77,0,0,1-2.74-1,3.46,3.46,0,0,1-1-2.64,4.61,4.61,0,0,1,1.34-3.43A4.8,4.8,0,0,1,389.54,272Zm1.59,3.53a2.25,2.25,0,0,0-.48-1.52,1.63,1.63,0,0,0-1.3-.56,2.23,2.23,0,0,0-1.78.95,3.55,3.55,0,0,0-.77,2.28,2.38,2.38,0,0,0,.51,1.6,1.69,1.69,0,0,0,1.34.59,2.14,2.14,0,0,0,1.75-1A3.83,3.83,0,0,0,391.13,275.57Z" transform="translate(-166.36 -230.29)"/><path class="cls-2" d="M247.29,247.4l-1.33,4a10.78,10.78,0,0,0-1.82-.65,7.54,7.54,0,0,0-1.74-.22,5.17,5.17,0,0,0-3.7,1.32,4.48,4.48,0,0,0-1.41,3.46,3.86,3.86,0,0,0,1.15,3,4.35,4.35,0,0,0,3.13,1.1,6.85,6.85,0,0,0,1.6-.19,9.17,9.17,0,0,0,1.69-.58l-.68,4.38a22.08,22.08,0,0,1-2.49.51,16.09,16.09,0,0,1-2.25.16,8.38,8.38,0,0,1-6-2.1,7.36,7.36,0,0,1-2.23-5.6,9.05,9.05,0,0,1,2.88-7,10.84,10.84,0,0,1,7.63-2.66,14.6,14.6,0,0,1,2.8.27A15.2,15.2,0,0,1,247.29,247.4Z" transform="translate(-166.36 -230.29)"/><path class="cls-2" d="M263.47,254.47l-1,4.71c-.21,1-.37,1.76-.47,2.38s-.17,1.22-.21,1.81H257l.31-2.52a6.28,6.28,0,0,1-2.41,2.15,7.27,7.27,0,0,1-3.34.73,5.84,5.84,0,0,1-4-1.35,4.62,4.62,0,0,1-1.51-3.59,5,5,0,0,1,2.57-4.44,13.69,13.69,0,0,1,7.21-1.6c.37,0,.77,0,1.21,0l1.47.12a1.25,1.25,0,0,0,0-.21,2.92,2.92,0,0,0,0-.32,2.3,2.3,0,0,0-.82-1.93,3.71,3.71,0,0,0-2.38-.66,12.33,12.33,0,0,0-2.8.32,11.81,11.81,0,0,0-2.61.94l.67-3.87a16.6,16.6,0,0,1,2.74-.73,15.85,15.85,0,0,1,2.77-.25,9.88,9.88,0,0,1,5.68,1.41,4.47,4.47,0,0,1,2,3.88,11.54,11.54,0,0,1-.09,1.33Q263.64,253.57,263.47,254.47Zm-5.64,1.32-.65,0-1,0a7.5,7.5,0,0,0-3.51.66,2.06,2.06,0,0,0-1.2,1.91,1.71,1.71,0,0,0,.59,1.35,2.2,2.2,0,0,0,1.53.52,3.76,3.76,0,0,0,2.77-1.19A5.62,5.62,0,0,0,257.83,255.79Z" transform="translate(-166.36 -230.29)"/><path class="cls-2" d="M293.24,253.84l-2.06,9.53h-5.53L287.4,255a10.74,10.74,0,0,0,.21-1.16,6.18,6.18,0,0,0,.07-.89,2.09,2.09,0,0,0-.46-1.44A1.61,1.61,0,0,0,286,251a2.72,2.72,0,0,0-1.23.29,2.89,2.89,0,0,0-1,.83,8.15,8.15,0,0,0-1.26,3.47c-.07.33-.12.59-.16.77l-1.48,7h-5.88l1.78-8.32a9.19,9.19,0,0,0,.19-1.15,10.5,10.5,0,0,0,.07-1.11,1.78,1.78,0,0,0-.45-1.31,1.75,1.75,0,0,0-1.29-.46,2.59,2.59,0,0,0-2.1,1,7.18,7.18,0,0,0-1.25,3.11l-1.78,8.25h-5.88l3.56-16.74h5l-.64,3a10.6,10.6,0,0,1,2.83-2.51,6,6,0,0,1,3-.78,4.87,4.87,0,0,1,2.9.81,4.56,4.56,0,0,1,1.65,2.45,9.74,9.74,0,0,1,2.8-2.51,6.48,6.48,0,0,1,3.12-.75,4.91,4.91,0,0,1,3.71,1.4,5.21,5.21,0,0,1,1.36,3.81,10.68,10.68,0,0,1,0,1.13A11.25,11.25,0,0,1,293.24,253.84Z" transform="translate(-166.36 -230.29)"/><path class="cls-2" d="M301,260.6l-2,9.51h-5.81l5-23.48h5.2l-.64,2.93a8.45,8.45,0,0,1,2.74-2.43,7,7,0,0,1,3.32-.82,6,6,0,0,1,4.73,2,7.94,7.94,0,0,1,1.76,5.42,10.74,10.74,0,0,1-2.44,7.29,8,8,0,0,1-6.33,2.81,6.21,6.21,0,0,1-3.24-.84A6,6,0,0,1,301,260.6Zm8.32-6.65a3.54,3.54,0,0,0-.78-2.42,2.62,2.62,0,0,0-2.09-.9,3.85,3.85,0,0,0-3.06,1.6,5.89,5.89,0,0,0-1.3,3.82,3.74,3.74,0,0,0,.84,2.56,2.82,2.82,0,0,0,2.23.95,3.58,3.58,0,0,0,2.94-1.64A6.46,6.46,0,0,0,309.27,254Z" transform="translate(-166.36 -230.29)"/><path class="cls-2" d="M326.92,246.35a9.07,9.07,0,0,1,6.31,2.07,7.31,7.31,0,0,1,2.3,5.72,9.06,9.06,0,0,1-2.94,7,11.13,11.13,0,0,1-7.8,2.68,9,9,0,0,1-6.24-2,7.08,7.08,0,0,1-2.28-5.56,9.41,9.41,0,0,1,2.88-7.23A10.87,10.87,0,0,1,326.92,246.35Zm2.77,7.54a4.12,4.12,0,0,0-.84-2.73,2.79,2.79,0,0,0-2.26-1,3.84,3.84,0,0,0-3.14,1.76,7,7,0,0,0-1.3,4.3,4,4,0,0,0,.89,2.7,2.85,2.85,0,0,0,2.29,1.05,3.71,3.71,0,0,0,3.08-1.75A7.1,7.1,0,0,0,329.69,253.89Z" transform="translate(-166.36 -230.29)"/><path class="cls-2" d="M353.51,251.79a6,6,0,0,1,3.05,1.74,4.37,4.37,0,0,1,1,3,6.4,6.4,0,0,1-2.6,5.44q-2.61,1.95-7.33,1.95a17.6,17.6,0,0,1-3.57-.37,23.74,23.74,0,0,1-3.73-1.11l1.2-4.46a9.17,9.17,0,0,0,2.47,1,11.74,11.74,0,0,0,2.92.35,6.61,6.61,0,0,0,3.66-.88,2.67,2.67,0,0,0,1.35-2.35,1.93,1.93,0,0,0-1.14-1.83,8.1,8.1,0,0,0-3.54-.58h-1.42l.8-3.86h.78l.74,0a11.59,11.59,0,0,0,4.44-.59,2.07,2.07,0,0,0,1.26-2,2.27,2.27,0,0,0-.95-1.91,4.35,4.35,0,0,0-2.63-.7,13.37,13.37,0,0,0-2.51.27,24.55,24.55,0,0,0-3,.8l.68-4.42a22.21,22.21,0,0,1,3.09-.61,25.05,25.05,0,0,1,3.13-.2,9.28,9.28,0,0,1,5.68,1.55,5,5,0,0,1,2.07,4.26,4.9,4.9,0,0,1-1.58,3.72A7.14,7.14,0,0,1,353.51,251.79Z" transform="translate(-166.36 -230.29)"/><path class="cls-2" d="M379.25,242.22,378,246.05a8,8,0,0,0-2.26-1.18,7.5,7.5,0,0,0-2.48-.4,5.16,5.16,0,0,0-3.75,1.39,10,10,0,0,0-2.34,4.49,7,7,0,0,1,1.91-1,7.29,7.29,0,0,1,2.12-.3,6.12,6.12,0,0,1,4.63,1.8,6.67,6.67,0,0,1,1.73,4.84,7.67,7.67,0,0,1-2.36,5.86,8.72,8.72,0,0,1-6.25,2.24,7.47,7.47,0,0,1-5.77-2.25,9,9,0,0,1-2.08-6.27,21.08,21.08,0,0,1,.64-5.1,17.22,17.22,0,0,1,1.76-4.45,10.32,10.32,0,0,1,3.87-3.94,11,11,0,0,1,5.48-1.32,12,12,0,0,1,3.2.43A14.77,14.77,0,0,1,379.25,242.22Zm-9.87,10.5a2.74,2.74,0,0,0-2.28,1.12,4.68,4.68,0,0,0-.87,3,3.77,3.77,0,0,0,.65,2.4,2.24,2.24,0,0,0,1.89.83,2.86,2.86,0,0,0,2.36-1.22,4.9,4.9,0,0,0,.93-3.07,3.16,3.16,0,0,0-.74-2.18A2.45,2.45,0,0,0,369.38,252.72Z" transform="translate(-166.36 -230.29)"/><path class="cls-2" d="M389.64,240.44c2.61,0,4.55.7,5.84,2.09s1.94,3.47,1.94,6.26a23.45,23.45,0,0,1-.82,6.17,17.52,17.52,0,0,1-2.25,5.21,8.12,8.12,0,0,1-3,2.8,8.54,8.54,0,0,1-4,.95,7.2,7.2,0,0,1-5.69-2.23,9.29,9.29,0,0,1-2-6.38,22,22,0,0,1,.95-6.5,15.79,15.79,0,0,1,2.62-5.24,8.16,8.16,0,0,1,2.85-2.32A8.07,8.07,0,0,1,389.64,240.44Zm2.36,7.09a4.43,4.43,0,0,0-.52-2.37,1.7,1.7,0,0,0-1.51-.81,2.3,2.3,0,0,0-1.49.59,4.81,4.81,0,0,0-1.25,1.69,16.7,16.7,0,0,0-.86,2.24c-.27.85-.52,1.82-.76,2.92s-.37,1.89-.48,2.71a16.58,16.58,0,0,0-.17,2.16,4.48,4.48,0,0,0,.57,2.46,1.81,1.81,0,0,0,1.61.86,2.14,2.14,0,0,0,1.4-.54,5.05,5.05,0,0,0,1.18-1.61,17.17,17.17,0,0,0,.87-2.29c.27-.85.52-1.79.74-2.82s.39-1.95.5-2.83A17.55,17.55,0,0,0,392,247.53Z" transform="translate(-166.36 -230.29)"/><path class="cls-3" d="M257.76,255.81l-1,0a8.37,8.37,0,0,0-3.14.5h4.7c0-.14.07-.28.09-.43Z" transform="translate(-166.36 -230.29)"/><path class="cls-2" d="M192.27,247.09a18,18,0,0,1,8.49,3.74c-1.87-4.81-10.54-8.31-16.29-8.23-4.36.37-6.87,1.93-10.62,9.43-3.4,7.11-10.08,18.78-6.43,21.5,2,2.05,5.46,1.91,8.21,2,2.91,0,5.36-.14,8.62.11-4.61-1.54-7.57-3-8.86-6.44-1.93-4.44,1.77-13.08,4.89-17.45C183.52,247.05,187.84,246.49,192.27,247.09Zm8.94-9.39c4.61,1.54,7.57,3,8.86,6.43,1.94,4.45-1.77,13.09-4.89,17.46-3.23,4.69-7.56,5.25-12,4.65a17.87,17.87,0,0,1-8.48-3.74c1.86,4.81,10.53,8.31,16.27,8.23,4.37-.37,6.88-1.93,10.63-9.43,3.4-7.11,10.08-18.79,6.43-21.5-2-2.05-5.46-1.92-8.21-2C206.92,237.82,204.47,238,201.21,237.7Z" transform="translate(-166.36 -230.29)"/><path class="cls-2" d="M205.26,274c-4.45,1.94-13.08-1.77-17.45-4.89-4.69-3.23-5.25-7.55-4.65-12a17.72,17.72,0,0,1,3.74-8.49c-4.81,1.87-8.31,10.53-8.24,16.28.38,4.37,1.93,6.87,9.43,10.63,7.12,3.39,18.79,10.07,21.5,6.42,2.06-2,1.92-5.45,2-8.21s-.15-5.35.11-8.61C210.16,269.76,208.68,272.72,205.26,274Zm-3-17.79a17.77,17.77,0,0,1-3.74,8.48c4.81-1.87,8.31-10.53,8.23-16.28-.37-4.37-1.93-6.87-9.42-10.63-7.12-3.39-18.79-10.07-21.5-6.43-2.06,2-1.92,5.46-2,8.22s.15,5.35-.11,8.61c1.55-4.6,3-7.57,6.44-8.86,4.45-1.93,13.08,1.78,17.45,4.9C202.34,247.45,202.9,251.77,202.3,256.21Z" transform="translate(-166.36 -230.29)"/></svg>